<?xml version="1.0" encoding="UTF-8"?>
<svg width="492px" height="624px" viewBox="0 0 492 624" version="1.1" xmlns="http://www.w3.org/2000/svg" xmlns:xlink="http://www.w3.org/1999/xlink">
    <!-- Generator: Sketch 60 (88103) - https://sketch.com -->
    <title>full</title>
    <desc>Created with Sketch.</desc>
    <g id="Airship" stroke="none" stroke-width="1" fill="none" fill-rule="evenodd">
        <g id="Logo" transform="translate(-829.000000, -202.000000)" fill="#FF2A13">
            <g id="full" transform="translate(829.000000, 202.000000)">
                <g id="mark" transform="translate(0.821489, 0.000000)">
                    <path d="M145.224903,415.98908 C144.739179,415.98908 144.324821,415.577782 144.324821,415.090049 C144.324821,414.605228 144.739179,414.190291 145.224903,414.190291 C145.71354,414.190291 146.127898,414.605228 146.127898,415.090049 C146.127898,415.577782 145.71354,415.98908 145.224903,415.98908 L145.224903,415.98908 Z M145.224903,407.88179 C141.250268,407.88179 138.013323,411.113932 138.013323,415.090049 C138.013323,419.065439 141.250268,422.299037 145.224903,422.299037 C149.206091,422.299037 152.439396,419.065439 152.439396,415.090049 C152.439396,411.113932 149.206091,407.88179 145.224903,407.88179 L145.224903,407.88179 Z M168.972944,119.322101 C171.788249,119.945235 174.575882,118.163917 175.195599,115.349624 C175.819685,112.534602 174.037726,109.751611 171.225334,109.128478 C168.410028,108.508984 165.625308,110.286662 165.00195,113.100955 C164.379321,115.915976 166.160551,118.698967 168.972944,119.322101 L168.972944,119.322101 Z M127.781078,415.98908 C127.291713,415.98908 126.877355,415.577782 126.877355,415.090049 C126.877355,414.605228 127.291713,414.190291 127.781078,414.190291 C128.269715,414.190291 128.684073,414.605228 128.684073,415.090049 C128.684073,415.577782 128.269715,415.98908 127.781078,415.98908 L127.781078,415.98908 Z M127.781078,407.88179 C123.803531,407.88179 120.566585,411.113932 120.566585,415.090049 C120.566585,419.065439 123.803531,422.299037 127.781078,422.299037 C131.758626,422.299037 134.995571,419.065439 134.995571,415.090049 C134.995571,411.113932 131.758626,407.88179 127.781078,407.88179 L127.781078,407.88179 Z M286.510126,206.814153 C283.622727,206.814153 281.288776,209.150176 281.288776,212.036538 C281.288776,214.918531 283.622727,217.251643 286.510126,217.251643 C289.388787,217.251643 291.727107,214.918531 291.727107,212.036538 C291.727107,209.150176 289.388787,206.814153 286.510126,206.814153 L286.510126,206.814153 Z M283.80988,231.328933 C280.926849,231.328933 278.590714,233.665684 278.590714,236.548405 C278.590714,239.430399 280.926849,241.766422 283.80988,241.766422 C286.690725,241.766422 289.03123,239.430399 289.03123,236.548405 C289.03123,233.665684 286.690725,231.328933 283.80988,231.328933 L283.80988,231.328933 Z M281.114731,255.84444 C278.228788,255.84444 275.894837,258.184103 275.894837,261.059545 C275.894837,263.945179 278.228788,266.27829 281.114731,266.27829 C283.994848,266.27829 286.331712,263.945179 286.331712,261.059545 C286.331712,258.184103 283.994848,255.84444 281.114731,255.84444 L281.114731,255.84444 Z M166.320032,143.84416 C169.136066,144.460014 171.926611,142.682336 172.543415,139.871683 C173.162404,137.053022 171.384814,134.270031 168.572422,133.650537 C165.760029,133.027403 162.969483,134.808721 162.349038,137.619375 C161.73005,140.430756 163.507639,143.221027 166.320032,143.84416 L166.320032,143.84416 Z M163.670761,168.35894 C166.486066,168.982074 169.270058,167.205123 169.893416,164.386462 C170.513133,161.575809 168.731902,158.792818 165.91951,158.168956 C163.107117,157.545823 160.319484,159.323501 159.696855,162.142162 C159.07641,164.953543 160.854727,167.739446 163.670761,168.35894 L163.670761,168.35894 Z M155.715666,241.918566 C158.530972,242.5417 161.318605,240.76475 161.938321,237.946089 C162.558766,235.134707 160.780449,232.345165 157.968056,231.72931 C155.152751,231.105449 152.365118,232.883127 151.74176,235.698148 C151.124956,238.513169 152.899632,241.302712 155.715666,241.918566 L155.715666,241.918566 Z M153.062754,266.441353 C155.882429,267.057207 158.665693,265.283169 159.285409,262.468876 C159.905854,259.653855 158.13045,256.867224 155.315144,256.25137 C152.49911,255.628236 149.712206,257.405186 149.095402,260.219479 C148.472772,263.035229 150.250362,265.81822 153.062754,266.441353 L153.062754,266.441353 Z M158.368578,217.403786 C161.184612,218.019641 163.967875,216.241962 164.591962,213.431309 C165.214591,210.613376 163.433361,207.830385 160.618055,207.206523 C157.804934,206.587029 155.021671,208.364708 154.398313,211.179001 C153.774227,213.99111 155.556186,216.781381 158.368578,217.403786 L158.368578,217.403786 Z M161.017121,192.880999 C163.836796,193.497581 166.621516,191.720631 167.240504,188.908522 C167.86459,186.094228 166.085544,183.307598 163.270239,182.691744 C160.454934,182.06861 157.670942,183.84556 157.046856,186.660581 C156.424226,189.475603 158.205456,192.257865 161.017121,192.880999 L161.017121,192.880999 Z M297.295091,108.753578 C294.412061,108.753578 292.07811,111.093242 292.07811,113.975235 C292.07811,116.857229 294.412061,119.194708 297.295091,119.194708 C300.178121,119.194708 302.514985,116.857229 302.514985,113.975235 C302.514985,111.093242 300.178121,108.753578 297.295091,108.753578 L297.295091,108.753578 Z M424.908678,145.547587 C421.338935,134.688608 415.934072,124.660959 409.061843,115.816974 C400.526356,103.820922 390.803138,96.3578761 382.883726,91.8539879 C398.910432,69.3782241 427.394827,47.5321456 458.70181,46.2436565 C455.968066,60.7002134 458.694528,78.4558848 464.30839,94.8065935 C457.826488,89.8957756 449.829156,85.6932627 441.002379,82.7901584 C422.03293,76.5479017 403.724706,77.7126377 390.771825,85.9764391 C390.750706,85.9909983 390.739055,86.0084694 390.719393,86.0193888 C390.707741,86.0259404 390.698274,86.0397717 390.676428,86.0506911 C390.173227,86.4008398 389.79091,86.8718299 389.564433,87.4068805 C389.546228,87.4563817 389.536032,87.5131626 389.517827,87.5626639 C389.464667,87.7075279 389.415148,87.8494801 389.379465,87.997984 C389.379465,88.0089034 389.376552,88.016183 389.372183,88.0263744 C389.358346,88.0977145 389.362716,88.1646868 389.351064,88.2280193 C389.337228,88.3590521 389.319751,88.4828053 389.315381,88.6174779 C389.315381,88.7135686 389.329946,88.8052916 389.337228,88.9013823 C389.348151,89.0105763 389.351064,89.1168584 389.372183,89.2267804 C389.394029,89.3330625 389.426799,89.4320651 389.458113,89.5310676 C389.486513,89.6271584 389.507632,89.7225211 389.546228,89.8142441 C389.592834,89.9314456 389.655461,90.0406396 389.719544,90.1542014 C389.747945,90.2182618 389.773433,90.2786825 389.812029,90.3383752 C389.816398,90.3456548 389.826593,90.3529344 389.828778,90.3631259 C389.907426,90.4832393 390.004279,90.5895214 390.095307,90.6994434 C390.137544,90.7489447 390.173227,90.8020857 390.222746,90.8479472 C390.318143,90.9505896 390.432473,91.0321211 390.541707,91.1209322 C390.591226,91.160242 390.634191,91.2090153 390.686623,91.2446854 C390.789302,91.3087459 390.899992,91.3582471 391.005584,91.4186678 C391.080591,91.4572497 391.1505,91.506751 391.225507,91.5351414 C391.313622,91.5737233 391.409019,91.5955621 391.497134,91.6275923 C391.604182,91.6588946 391.710503,91.6982044 391.823377,91.7229551 C391.8343,91.7265949 391.848865,91.7338745 391.862701,91.7338745 C409.082962,95.1254399 427.086789,112.382459 425.38712,131.731635 C425.234921,133.470003 426.520233,134.999447 428.255585,135.15523 C428.350982,135.16251 428.440554,135.16615 428.535951,135.16615 C430.154059,135.16615 431.528214,133.930802 431.677499,132.287796 C432.629285,121.389507 428.545417,110.374745 420.16941,101.264326 C414.838827,95.4653972 407.999368,90.7918943 400.944355,87.9375633 C411.587317,83.9439749 425.039758,84.1849297 439.029627,88.7841807 C452.918273,93.3477617 464.821786,101.540951 470.620616,110.14471 C470.744414,110.406775 470.868212,110.679032 470.99565,110.944738 C451.164715,116.889259 434.950128,129.415994 424.908678,145.547587 L424.908678,145.547587 Z M434.397408,258.000658 C427.997066,269.054002 413.401317,279.555552 396.417,276.553445 C394.696212,276.249158 393.063539,277.388415 392.759142,279.11004 C392.454745,280.82293 393.602423,282.458656 395.318842,282.766583 C397.692845,283.180793 400.026796,283.379526 402.303945,283.379526 C415.154875,283.379526 426.349829,277.11179 433.873816,269.124614 C431.72629,278.663073 432.193809,288.754054 434.333324,297.761103 C415.905672,296.642956 398.574721,290.333727 385.640046,280.157575 C389.600116,277.515808 393.527416,274.344087 397.320723,270.761068 C397.455444,270.640226 397.583611,270.512833 397.716876,270.39272 C397.816642,270.292989 397.923691,270.193987 398.028555,270.094984 C407.319209,261.509425 414.959712,251.167297 420.417006,239.610933 C423.810519,247.258152 428.482062,253.418878 434.397408,258.000658 L434.397408,258.000658 Z M369.215732,271.242249 C369.201167,271.249529 369.184418,271.256808 369.172766,271.26336 C369.153104,271.269912 369.141453,271.277191 369.127617,271.288111 C357.709099,277.211521 344.756218,280.578336 331.023411,280.578336 L310.237048,280.578336 L314.550306,240.559465 L362.532112,240.559465 C386.836514,240.559465 407.351979,226.20919 413.536038,206.725342 C412.391273,217.130801 409.310167,226.956077 404.664112,235.850292 C400.077043,244.234207 394.190098,251.783151 388.006038,257.865257 C382.416208,263.14879 376.098156,267.658502 369.215732,271.242249 L369.215732,271.242249 Z M294.365454,280.578336 L265.138273,280.578336 L285.741852,93.30554 L314.554675,93.30554 L294.365454,280.578336 L294.365454,280.578336 Z M298.158762,380.137052 L303.305833,380.137052 L303.305833,385.277905 L298.158762,385.277905 L298.158762,380.137052 Z M253.751069,389.782521 L303.31967,389.782521 L303.31967,393.013936 L253.751069,393.013936 L253.751069,389.782521 Z M291.396494,447.086801 L291.25886,447.305189 C290.972669,447.777635 290.417036,448.456822 289.459424,449.250298 C289.459424,448.987505 289.471076,448.704328 289.471076,448.442991 C289.473989,448.37893 289.473989,448.31487 289.473989,448.255177 C289.535159,443.684317 289.535159,439.328932 289.375679,435.264004 L289.375679,410.894816 L287.957831,409.956476 C281.352131,405.563237 273.96068,405.494809 266.200748,409.828355 L264.581911,410.731025 L264.581911,438.525992 L264.585552,438.525992 C264.574629,444.68235 264.153717,450.878745 263.650516,457.326286 C215.073753,463.706127 135.799528,449.455583 125.468246,432.315766 L118.56179,419.70386 L118.564703,419.70386 L110.528047,405.028187 L109.61777,403.363342 L151.175203,403.363342 C157.595935,420.219983 177.39847,431.787995 200.962999,432.289559 C225.600199,432.821698 245.640134,420.928288 253.223836,401.249347 L253.751069,399.880054 L253.751069,399.426535 L303.259227,399.426535 C302.486584,420.177761 298.517047,436.227095 291.396494,447.086801 L291.396494,447.086801 Z M290.500781,517.257774 C289.605069,518.426878 287.834033,519.774332 285.252487,520.731599 C281.647061,522.073229 277.820984,522.164224 274.970723,521.025695 C274.017481,518.303124 273.192406,515.6286 272.491856,513.005032 C277.740151,513.950652 283.506211,512.470709 287.748831,510.016756 C288.53968,512.503467 289.449957,514.927574 290.500781,517.257774 L290.500781,517.257774 Z M269.527266,497.706953 C274.707107,498.439281 280.311502,497.466726 284.458725,495.207139 C284.870171,498.060742 285.383567,500.875763 286.013479,503.627452 C282.305373,506.466495 275.310803,508.329345 270.813305,505.813515 C270.271508,503.066922 269.846227,500.369831 269.527266,497.706953 L269.527266,497.706953 Z M282.885766,466.537892 C282.871202,468.659167 282.878484,470.797913 282.911254,472.947579 C279.369911,475.053567 273.953398,477.421621 268.740786,476.414124 C268.821619,474.045343 268.945416,471.704951 269.094702,469.382031 C274.700553,469.098855 279.141978,467.830748 282.885766,466.537892 L282.885766,466.537892 Z M283.087484,452.695733 C283.078017,453.465915 283.063452,454.252111 283.045247,455.045588 C283.018302,456.61143 282.985533,458.200566 282.960773,459.807174 C279.037114,461.234703 274.963441,462.662233 269.537461,463.030581 C269.629945,461.822167 269.725342,460.621761 269.820739,459.417715 C269.970024,457.563601 270.112028,455.732782 270.243108,453.916522 C274.821438,454.589157 279.135424,453.841542 283.087484,452.695733 L283.087484,452.695733 Z M270.894138,432.192013 L270.894138,414.509137 C275.367604,412.42426 279.244657,412.363111 283.05617,414.375193 L283.05617,432.149063 L279.531577,432.159254 L270.894138,432.192013 L270.894138,432.192013 Z M270.929821,438.500514 L281.656528,438.461932 L283.151567,438.457564 C283.205455,440.890406 283.205455,443.425163 283.184337,446.048731 C279.18203,447.373618 274.987473,448.35782 270.653825,447.589822 C270.820587,444.546949 270.925451,441.534651 270.929821,438.500514 L270.929821,438.500514 Z M268.64102,482.803429 C273.832513,483.529933 278.868895,482.071101 283.10933,480.021166 C283.225846,482.698603 283.393337,485.385503 283.636563,488.054204 C281.257462,490.600608 274.736236,492.622153 268.917016,491.18516 C268.736417,488.345388 268.648302,485.558757 268.64102,482.803429 L268.64102,482.803429 Z M113.350635,393.407762 L118.490424,393.407762 L118.490424,398.552255 L113.350635,398.552255 L113.350635,393.407762 Z M112.277964,280.578336 C73.1542485,280.578336 40.2815885,253.372288 31.5509374,216.900766 C39.6764362,230.999895 55.1722677,240.559465 72.9416077,240.559465 L124.790999,240.559465 L120.332097,280.578336 L112.277964,280.578336 L112.277964,280.578336 Z M112.277964,93.30554 L141.200749,93.30554 L136.738206,133.37828 L72.9416077,133.37828 C55.1577033,133.37828 39.6516767,142.955321 31.5305472,157.075561 C40.2291565,120.554537 73.1222067,93.30554 112.277964,93.30554 L112.277964,93.30554 Z M185.693644,93.30554 L165.44835,280.578336 L136.213886,280.578336 L157.082538,93.30554 L185.693644,93.30554 L185.693644,93.30554 Z M206.165416,51.5475728 L206.165416,77.524824 L174.027531,77.524824 L206.165416,51.5475728 L206.165416,51.5475728 Z M182.261535,183.785139 L187.025562,139.74065 L274.187157,139.74065 L269.285496,183.785139 L182.261535,183.785139 L182.261535,183.785139 Z M176.818077,234.139586 L181.578463,190.098008 L268.584218,190.098008 L263.682557,234.139586 L176.818077,234.139586 L176.818077,234.139586 Z M253.690626,380.137052 L258.837698,380.137052 L258.837698,385.277905 L253.690626,385.277905 L253.690626,380.137052 Z M171.795532,280.578336 L176.134277,240.453183 L263.201203,240.453183 L258.787451,280.578336 L171.795532,280.578336 L171.795532,280.578336 Z M31.9230588,183.785139 L31.9230588,179.501823 C31.9230588,157.606243 50.323767,139.793791 72.9416077,139.793791 L136.022364,139.793791 L131.113421,183.785139 L31.9230588,183.785139 L31.9230588,183.785139 Z M130.415785,190.098008 L125.506841,234.146866 L72.9416077,234.146866 C50.323767,234.146866 31.9230588,216.334413 31.9230588,194.438834 L31.9230588,190.098008 L130.415785,190.098008 L130.415785,190.098008 Z M128.177959,393.407762 L133.316292,393.407762 L133.316292,398.552255 L128.177959,398.552255 L128.177959,393.407762 Z M143.003826,393.407762 L148.146529,393.407762 L148.146529,398.552255 L143.003826,398.552255 L143.003826,393.407762 Z M124.288526,387.586994 L134.453774,296.35614 L163.737757,296.35614 L153.873993,387.586994 L124.288526,387.586994 L124.288526,387.586994 Z M166.202788,398.403023 C166.164192,398.31858 166.117586,398.240688 166.085544,398.155517 L165.965388,387.586994 L160.224087,387.586994 L170.091493,296.35614 L257.052098,296.35614 L248.505687,374.004717 L237.964677,374.004717 L237.964677,396.860476 C231.430342,411.757449 214.878589,416.732327 201.303079,416.516123 C184.76589,416.162334 170.636931,408.794652 166.213711,398.431414 L166.294544,398.424134 L166.202788,398.403023 L166.202788,398.403023 Z M268.517222,380.137052 L273.663565,380.137052 L273.663565,385.277905 L268.517222,385.277905 L268.517222,380.137052 Z M283.343818,380.137052 L288.485063,380.137052 L288.485063,385.277905 L283.343818,385.277905 L283.343818,380.137052 Z M284.289778,374.004717 L254.86015,374.004717 L263.410202,296.35614 L292.665785,296.35614 L284.289778,374.004717 L284.289778,374.004717 Z M207.57234,93.30554 C208.0719,93.6382177 208.67414,93.8362228 209.321529,93.8362228 C209.966005,93.8362228 210.568244,93.6382177 211.075087,93.30554 L279.38666,93.30554 L274.978006,133.430693 L187.705721,133.430693 L192.044467,93.30554 L207.57234,93.30554 L207.57234,93.30554 Z M212.481283,50.2801945 L238.780285,64.760774 L216.674384,77.524824 L212.481283,77.524824 L212.481283,50.2801945 L212.481283,50.2801945 Z M267.638258,48.0919469 L245.161693,61.0722009 L221.597892,48.0919469 L267.638258,48.0919469 L267.638258,48.0919469 Z M261.954487,77.524824 L229.294468,77.524824 L245.236699,68.3197703 L261.954487,77.524824 L261.954487,77.524824 Z M251.622476,64.6268294 L270.473226,53.7431 L270.473226,75.0111783 L251.622476,64.6268294 L251.622476,64.6268294 Z M276.786909,53.8421026 L295.144652,64.8248345 L276.786909,74.9966191 L276.786909,53.8421026 L276.786909,53.8421026 Z M325.335999,48.0919469 L301.526788,61.2913169 L279.474775,48.0919469 L325.335999,48.0919469 L325.335999,48.0919469 Z M328.735338,77.524824 L328.665429,77.524824 L307.788767,65.033759 L328.735338,53.4242536 L328.735338,77.524824 L328.735338,77.524824 Z M320.67101,183.785139 L325.413919,139.793791 L362.532112,139.793791 C388.183725,139.793791 409.044366,157.606243 409.044366,179.501823 L409.044366,183.785139 L320.67101,183.785139 L320.67101,183.785139 Z M285.245205,77.524824 L301.407359,68.5709165 L316.37523,77.524824 L285.245205,77.524824 L285.245205,77.524824 Z M319.990851,190.098008 L409.044366,190.098008 L409.044366,194.438834 C409.044366,216.334413 388.183725,234.146866 362.532112,234.146866 L315.242117,234.146866 L319.990851,190.098008 L319.990851,190.098008 Z M331.023411,93.30554 C343.824822,93.30554 355.958454,96.215924 366.790753,101.409918 C367.304149,101.778266 367.848859,102.103664 368.447458,102.340979 C369.053338,102.589213 369.626449,102.893501 370.229416,103.162118 C380.312375,108.586876 389.134782,116.03245 396.1796,124.951415 C403.009592,134.69516 407.996455,146.786574 410.903516,160.810723 C402.655676,144.668939 384.084564,133.37828 362.532112,133.37828 L326.104273,133.37828 L330.429182,93.30554 L331.023411,93.30554 L331.023411,93.30554 Z M335.047565,55.6831133 L350.189481,70.8086654 L335.047565,77.2809574 L335.047565,55.6831133 L335.047565,55.6831133 Z M385.455806,55.7362544 L356.444906,68.1319566 L337.345833,49.0550379 L385.455806,55.7362544 L385.455806,55.7362544 Z M361.873799,82.4785915 C357.170215,80.9309487 352.314432,79.7276308 347.330482,78.8948446 L355.002299,75.6168409 L361.873799,82.4785915 L361.873799,82.4785915 Z M361.257724,72.9401322 L389.918349,60.6929338 C382.401644,67.4061805 375.829442,74.7316416 370.458806,82.1349944 L361.257724,72.9401322 L361.257724,72.9401322 Z M318.524212,408.670898 L332.979415,426.207454 L314.248822,433.622454 C316.328624,426.161592 317.75958,417.834458 318.524212,408.670898 L318.524212,408.670898 Z M349.385524,399.540097 L337.704118,422.011493 L319.18034,399.540097 L349.385524,399.540097 L349.385524,399.540097 Z M366.80022,412.81663 L345.138534,421.389087 L355.416657,401.628614 L366.80022,412.81663 L366.80022,412.81663 Z M377.78763,399.540097 L371.91525,408.993385 L362.299081,399.540097 L377.78763,399.540097 L377.78763,399.540097 Z M384.293564,401.034598 L384.293564,405.891547 L380.291257,407.477772 L384.293564,401.034598 L384.293564,401.034598 Z M392.429258,399.526265 L393.407259,399.526265 L393.407259,404.574668 L392.429258,404.574668 L392.429258,399.526265 Z M398.164004,451.674405 C398.631523,444.242662 399.264347,437.863549 399.91028,431.802554 L402.572659,451.674405 C402.512945,455.233401 401.103836,456.89679 400.14768,456.89679 C399.806873,456.89679 399.50903,456.660931 399.321877,456.465838 C398.493889,455.59447 398.061325,453.789129 398.164004,451.674405 L398.164004,451.674405 Z M399.321877,346.749168 C399.50903,346.551163 399.806873,346.31676 400.14768,346.31676 C401.103836,346.31676 402.512945,347.977237 402.572659,351.536233 L399.91028,371.410268 C399.264347,365.347089 398.631523,358.975256 398.168374,351.585734 C398.061325,349.425877 398.493889,347.616169 399.321877,346.749168 L399.321877,346.749168 Z M13.4735596,196.828726 C9.18433326,194.779519 6.31950872,191.118608 6.31950872,186.940118 C6.31950872,182.765996 9.18433326,179.102173 13.4735596,177.054422 L13.4735596,196.828726 L13.4735596,196.828726 Z M212.481283,6.82608055 L245.895012,6.82608055 L239.884269,12.6788786 C239.271835,13.2736219 238.932483,14.0882091 238.932483,14.945018 C238.932483,15.7945473 239.271835,16.6084065 239.884269,17.2038778 L245.898653,23.0595877 L212.481283,23.0595877 L212.481283,6.82608055 L212.481283,6.82608055 Z M489.62502,112.141504 C475.443629,88.8584326 469.405942,56.7699576 476.431826,42.0731739 C477.541636,39.7502537 477.449152,37.034963 476.184231,34.7935743 C474.920038,32.5558254 472.638519,31.0686032 470.07445,30.8210968 C467.272252,30.544472 464.417623,30.4068876 461.598676,30.4068876 C439.535741,30.4068876 418.653253,39.0914499 401.287348,51.562132 L331.066376,41.8111083 L212.481283,41.7827179 L212.481283,29.3695446 L253.665867,29.3695446 C254.948265,29.3695446 256.103225,28.5906275 256.588221,27.4004129 C257.073945,26.2145662 256.789938,24.8481853 255.865096,23.9520666 L246.610126,14.945018 L255.865096,5.92996184 C256.789938,5.03821089 257.073945,3.67110208 256.588221,2.48161551 C256.103225,1.29212893 254.948265,0.516851572 253.665867,0.516851572 L209.321529,0.516851572 C207.575981,0.516851572 206.165416,1.9290939 206.165416,3.67110208 L206.165416,43.4330031 L163.988994,77.524824 L112.277964,77.524824 C59.8401694,77.524824 16.8313903,118.581766 13.6789182,170.22179 C5.69178154,172.827886 0,179.327841 0,186.940118 C0,194.556035 5.69178154,201.060357 13.6789182,203.659174 C16.8313903,255.299198 59.8401694,296.35614 112.277964,296.35614 L118.575626,296.35614 L108.530535,386.46084 L2.64271689,364.53687 L2.67111754,381.333818 L96.5876976,412.427172 L111.689561,440.016126 L111.814087,440.227963 C124.76624,462.237104 189.275039,474.558554 238.188241,474.558554 C246.940738,474.558554 255.192948,474.157449 262.566922,473.351597 C261.635526,493.673327 263.250722,516.56694 278.564498,544.181373 C279.141978,545.21726 280.223387,545.80618 281.331013,545.80618 C281.848778,545.80618 282.37237,545.678059 282.857365,545.409442 C284.385175,544.566464 284.933526,542.643922 284.087332,541.118118 C281.593172,536.624421 279.482057,532.273404 277.694273,528.056332 C280.832181,528.318398 284.203848,527.859055 287.450989,526.647729 C289.87087,525.751611 291.957225,524.547565 293.585529,523.135323 C296.030898,527.18642 299.023161,530.864802 302.678834,534.069281 C303.992547,535.219458 305.987146,535.088425 307.130454,533.775185 C308.281045,532.468497 308.149965,530.470975 306.839894,529.32007 C302.671552,525.670807 299.46592,521.287032 297.010356,516.379126 C296.922241,516.117789 296.802813,515.870282 296.653527,515.642431 C294.971335,512.151863 293.661264,508.405781 292.637384,504.479893 C292.612625,504.136296 292.527423,503.796338 292.385419,503.473852 C291.25886,498.889888 290.512433,494.070065 290.023068,489.117754 C290.029622,488.833121 290.005591,488.554313 289.94442,488.281328 C289.535159,483.87717 289.329073,479.369642 289.240958,474.851194 C289.247512,474.696139 289.247512,474.540355 289.233675,474.391852 C289.19071,472.037629 289.187798,469.686318 289.19508,467.335736 C296.483123,464.375851 301.694279,460.441227 304.665424,455.63014 C307.40645,451.424715 309.768802,446.675504 311.741555,441.400706 L338.379908,430.852566 C338.46511,430.852566 338.550312,430.852566 338.636242,430.842375 C339.282903,430.773947 339.867665,430.488586 340.349748,430.073649 L373.19692,417.069372 C373.558118,416.988569 373.909121,416.86336 374.217887,416.668267 L388.827473,410.883169 L395.673486,410.883169 C395.181208,416.818226 394.608097,422.139614 394.044454,427.33652 C393.255061,434.616119 392.435812,442.144681 391.85906,451.324984 C391.618019,456.409057 393.29657,459.29105 394.753013,460.816854 C396.219652,462.35649 398.135604,463.206747 400.14768,463.206747 C404.479144,463.206747 408.873962,459.177488 408.887798,451.484408 L408.887798,451.275483 L403.597267,411.764728 L409.469648,402.049375 L403.50187,392.175326 L408.860854,352.155727 L408.887798,351.939523 L408.887798,351.727686 C408.873962,344.037517 404.479144,340.008259 400.14768,340.008259 C398.139973,340.008259 396.219652,340.854148 394.753013,342.393784 C393.29657,343.916676 391.618019,346.803037 391.865614,351.932971 C392.435812,361.068141 393.255061,368.594519 394.044454,375.870478 C394.636498,381.330178 395.242378,386.92455 395.744123,393.220676 L386.118488,393.220676 L386.118488,393.234507 L319.101692,393.234507 L319.101692,374.004717 L300.166469,374.004717 L308.533009,296.35614 L331.023411,296.35614 C345.113047,296.35614 358.508686,293.370776 370.643774,288.038469 C388.055558,304.197725 413.598665,313.721625 440.262506,313.721625 C442.037911,313.721625 443.825695,313.683771 445.625131,313.5986 C448.227796,313.478486 450.603984,312.086627 451.972313,309.873628 C453.342098,307.65699 453.534348,304.913309 452.482068,302.533608 C447.204644,290.587785 446.102845,272.552577 454.210138,261.20077 C455.620704,259.225086 456.048898,256.71144 455.357816,254.389248 C454.674744,252.05832 452.952499,250.175816 450.696468,249.283337 C433.420134,242.436146 429.704747,220.675238 429.634109,203.616953 C429.753537,201.619431 429.835826,199.615357 429.835826,197.583621 L429.835826,178.786238 C432.407178,151.675554 454.352141,129.143737 484.217974,124.016715 C486.792238,123.574115 488.981272,121.885248 490.069236,119.509187 C491.14846,117.133853 490.982426,114.371973 489.62502,112.141504 L489.62502,112.141504 Z M289.205275,182.297917 C286.322245,182.297917 283.983925,184.638309 283.983925,187.52103 C283.983925,190.399384 286.322245,192.739775 289.205275,192.739775 C292.088305,192.739775 294.426625,190.399384 294.426625,187.52103 C294.426625,184.638309 292.088305,182.297917 289.205275,182.297917 L289.205275,182.297917 Z M99.8712496,307.912504 L91.0583095,369.763622 C86.3620072,364.866636 79.7249937,361.88564 72.7471725,361.88564 C67.8200238,361.88564 63.2584425,363.429643 59.5321316,366.307268 C55.2465464,358.787442 48.3721326,354.460448 40.0980766,354.20639 L99.8712496,307.912504 L99.8712496,307.912504 Z M23.8623717,366.781898 L25.7004035,365.354369 C29.9823477,362.291841 34.8170122,360.607342 39.3225204,360.607342 C46.7212538,360.607342 52.4836729,364.954719 55.5509431,372.857452 C55.9587473,373.916634 56.8974252,374.677352 58.019615,374.857886 C59.142533,375.050068 60.2756461,374.620571 61.0053243,373.746291 C64.7527537,369.243131 69.4599793,368.297511 72.7471725,368.297511 C80.1357108,368.297511 87.2650022,373.009596 90.0919592,379.758513 C90.5980733,380.958919 91.7734233,381.724005 93.0485397,381.724005 C93.18763,381.724005 93.3216228,381.716725 93.459985,381.697798 C94.8909408,381.514352 96.0240539,380.398389 96.2264996,378.967948 L107.336979,300.986693 C107.517578,299.694564 106.901503,298.419906 105.771303,297.761103 C104.644744,297.109578 103.224711,297.202029 102.197918,297.998418 L21.8641311,360.217883 C21.1810591,360.709256 20.5038128,361.237027 19.8418592,361.785909 C18.4953771,362.904784 18.298029,364.895026 19.3961875,366.257039 C20.4863355,367.621236 22.4772939,367.855639 23.8623717,366.781898 L23.8623717,366.781898 Z M294.599942,133.271998 C291.719825,133.271998 289.378592,135.605109 289.378592,138.490743 C289.378592,141.372736 291.719825,143.705848 294.599942,143.705848 C297.482972,143.705848 299.819836,141.372736 299.819836,138.490743 C299.819836,135.605109 297.482972,133.271998 294.599942,133.271998 L294.599942,133.271998 Z M291.900424,157.786777 C289.017394,157.786777 286.679073,160.120617 286.679073,163.002611 C286.679073,165.887516 289.017394,168.220628 291.900424,168.220628 C294.787823,168.220628 297.121774,165.887516 297.121774,163.002611 C297.121774,160.120617 294.787823,157.786777 291.900424,157.786777 L291.900424,157.786777 Z" id="Fill-1" transform="translate(245.387590, 273.161516) scale(-1, 1) translate(-245.387590, -273.161516) "></path>
                </g>
                <text id="AIRSHIP" stroke="#FF2A13" stroke-width="2.5" font-family="Telegrafico" font-size="93" font-weight="normal" letter-spacing="7">
                    <tspan x="59.1738462" y="621">AIRSHI</tspan>
                    <tspan x="377.169231" y="621">P</tspan>
                </text>
            </g>
        </g>
    </g>
</svg>