<svg width="492" height="624" xmlns="http://www.w3.org/2000/svg"><g fill="#FF2A13" fill-rule="evenodd"><path d="M346.372 415.99c.485 0 .9-.412.9-.9 0-.485-.415-.9-.9-.9a.916.916 0 00-.903.9c0 .488.414.9.903.9zm0-8.108c3.974 0 7.211 3.232 7.211 7.208 0 3.975-3.237 7.209-7.211 7.209-3.981 0-7.215-3.234-7.215-7.209 0-3.976 3.234-7.208 7.215-7.208zm-23.748-288.56a5.219 5.219 0 01-6.223-3.972 5.218 5.218 0 1110.194-2.249 5.22 5.22 0 01-3.971 6.221zm41.192 296.667c.489 0 .903-.411.903-.899 0-.485-.414-.9-.903-.9a.916.916 0 00-.903.9c0 .488.414.9.903.9zm0-8.107c3.977 0 7.214 3.232 7.214 7.208 0 3.975-3.237 7.209-7.214 7.209-3.978 0-7.215-3.234-7.215-7.209 0-3.976 3.237-7.208 7.215-7.208zm-158.73-201.068a5.218 5.218 0 015.222 5.223 5.215 5.215 0 01-5.221 5.215 5.22 5.22 0 010-10.437zm2.7 24.515a5.219 5.219 0 110 10.437 5.221 5.221 0 01-5.22-5.218c0-2.882 2.34-5.22 5.22-5.22zm2.696 24.515c2.886 0 5.22 2.34 5.22 5.216a5.215 5.215 0 01-5.22 5.218 5.216 5.216 0 110-10.434zm114.795-112c-2.816.616-5.607-1.162-6.224-3.972a5.22 5.22 0 013.971-6.221 5.222 5.222 0 016.224 3.968 5.228 5.228 0 01-3.971 6.225zm2.649 24.515a5.217 5.217 0 11-2.249-10.19 5.219 5.219 0 016.223 3.973 5.216 5.216 0 01-3.974 6.217zm7.955 73.56a5.216 5.216 0 01-6.223-3.973 5.215 5.215 0 013.97-6.217 5.22 5.22 0 016.227 3.97c.617 2.814-1.158 5.604-3.974 6.22zm2.653 24.522a5.222 5.222 0 01-6.223-3.972 5.212 5.212 0 013.97-6.218 5.211 5.211 0 016.22 3.968 5.218 5.218 0 01-3.967 6.222zm-5.306-49.037a5.23 5.23 0 01-6.223-3.973 5.222 5.222 0 013.974-6.224 5.222 5.222 0 012.25 10.197zm-2.648-24.523a5.224 5.224 0 01-6.224-3.972 5.209 5.209 0 013.97-6.217 5.219 5.219 0 112.254 10.189zm-136.278-84.127a5.22 5.22 0 015.217 5.221 5.218 5.218 0 11-10.437 0 5.222 5.222 0 015.22-5.221zM66.688 145.548a98.684 98.684 0 0115.847-29.731c8.535-11.996 18.259-19.46 26.178-23.963-16.027-22.476-44.511-44.322-75.818-45.61 2.734 14.456.007 32.212-5.607 48.563 6.482-4.911 14.48-9.114 23.306-12.017 18.97-6.242 37.278-5.077 50.23 3.186.022.015.034.032.053.043.012.007.021.02.043.032.503.35.886.82 1.112 1.356.018.05.029.106.047.156a3.92 3.92 0 01.145.463c.014.072.01.139.022.202.013.131.03.255.035.39 0 .096-.014.187-.022.283-.01.11-.013.216-.035.326-.021.106-.054.205-.085.304-.029.096-.05.192-.089.283-.046.117-.109.227-.173.34-.028.064-.054.125-.092.184-.005.008-.015.015-.017.025-.079.12-.176.227-.267.336-.042.05-.078.103-.127.149-.095.103-.21.184-.319.273-.05.04-.093.088-.145.124-.103.064-.213.113-.319.174-.075.038-.145.088-.22.116-.088.039-.183.06-.271.093-.108.03-.214.07-.327.095-.01.004-.025.01-.039.01-17.22 3.392-35.224 20.65-33.524 39.999a3.161 3.161 0 01-3.15 3.434 3.16 3.16 0 01-3.14-2.878c-.953-10.898 3.131-21.913 11.507-31.024 5.33-5.799 12.17-10.472 19.225-13.326-10.643-3.994-24.095-3.753-38.085.846-13.889 4.564-25.792 12.757-31.59 21.36-.125.263-.249.535-.376.8 19.831 5.945 36.046 18.472 46.087 34.604zM57.199 258c6.4 11.053 20.996 21.555 37.98 18.552a3.15 3.15 0 013.659 2.557 3.16 3.16 0 01-2.56 3.657 40.619 40.619 0 01-6.985.613c-12.851 0-24.046-6.268-31.57-14.255 2.147 9.538 1.68 19.63-.46 28.636 18.428-1.118 35.759-7.427 48.694-17.603-3.96-2.642-7.888-5.814-11.681-9.397-.135-.12-.263-.248-.396-.368-.1-.1-.207-.199-.312-.298a99.263 99.263 0 01-22.388-30.484c-3.394 7.647-8.065 13.808-13.98 18.39zm65.182 13.241l.043.021c.02.007.031.014.045.025a82.51 82.51 0 0038.104 9.29h20.787l-4.314-40.019h-47.981c-24.305 0-44.82-14.35-51.004-33.834a82.236 82.236 0 008.872 29.125c4.587 8.384 10.474 15.933 16.658 22.015a83.487 83.487 0 0018.79 13.377zm74.85 9.336h29.227L205.855 93.306h-28.813l20.19 187.272zm-3.793 99.56h-5.147v5.14h5.147v-5.14zm44.408 9.645h-49.569v3.23h49.569v-3.23zM200.2 447.087l.138.218c.286.473.842 1.152 1.8 1.945 0-.262-.012-.546-.012-.807-.003-.064-.003-.128-.003-.188-.061-4.57-.061-8.926.098-12.991v-24.37l1.418-.938c6.606-4.393 13.997-4.461 21.757-.128l1.619.903v27.795h-.004c.011 6.156.432 12.353.935 18.8 48.577 6.38 127.851-7.87 138.182-25.01l6.907-12.612h-.003l8.037-14.676.91-1.665H340.42c-6.42 16.857-26.223 28.425-49.787 28.927-24.638.532-44.677-11.362-52.261-31.04l-.527-1.37v-.453h-49.509c.773 20.75 4.743 36.8 11.863 47.66zm.896 70.17c.896 1.17 2.667 2.517 5.248 3.475 3.606 1.341 7.432 1.432 10.282.294a110.726 110.726 0 002.479-8.021c-5.248.946-11.015-.534-15.257-2.988a67.036 67.036 0 01-2.752 7.24zm20.973-19.55c-5.18.732-10.784-.24-14.931-2.5a104.78 104.78 0 01-1.555 8.42c3.708 2.84 10.703 4.702 15.2 2.187a108.53 108.53 0 001.286-8.107zm-13.358-31.17c.014 2.122.007 4.26-.026 6.41 3.542 2.107 8.958 4.475 14.17 3.467-.08-2.369-.204-4.709-.353-7.032-5.606-.283-10.047-1.551-13.791-2.844zm-.202-13.841c.01.77.024 1.556.042 2.35.027 1.565.06 3.155.085 4.761 3.924 1.428 7.997 2.855 13.423 3.224-.092-1.209-.188-2.41-.283-3.613-.15-1.854-.291-3.685-.422-5.501-4.579.672-8.893-.075-12.845-1.221zm12.194-20.504v-17.683c-4.474-2.085-8.351-2.146-12.163-.134v17.774l3.525.01 8.638.033zm-.036 6.309l-10.727-.04-1.495-.003a253.245 253.245 0 00-.033 7.59c4.003 1.326 8.197 2.31 12.53 1.542a170.123 170.123 0 01-.275-9.09zm2.289 44.302c-5.192.727-10.228-.732-14.469-2.782a170.11 170.11 0 01-.527 8.033c2.38 2.547 8.9 4.568 14.72 3.131.18-2.84.268-5.626.276-8.382zm155.29-89.395h-5.14v5.144h5.14v-5.144zm1.073-112.83c39.123 0 71.996-27.206 80.727-63.677-8.126 14.099-23.622 23.658-41.39 23.658h-51.85l4.459 40.02h8.054zm0-187.272h-28.923l4.462 40.072h63.797c17.784 0 33.29 9.577 41.411 23.698-8.698-36.521-41.592-63.77-80.747-63.77zm-73.416 0l20.245 187.272h29.235L334.514 93.306h-28.611zm-20.472-41.758v25.977h32.138l-32.138-25.977zm23.904 132.237l-4.764-44.044H217.41l4.901 44.044h87.024zm5.444 50.355l-4.76-44.042h-87.007l4.902 44.042h86.865zm-76.873 145.997h-5.147v5.14h5.147v-5.14zm81.895-99.559l-4.339-40.125h-87.067l4.414 40.125h86.992zm139.873-96.793v-4.283c0-21.896-18.401-39.708-41.019-39.708h-63.08l4.908 43.991h99.19zm-98.493 6.313l4.909 44.049h52.565c22.618 0 41.019-17.813 41.019-39.708v-4.341H361.18zm2.238 203.31h-5.139v5.144h5.139v-5.144zm-14.826 0h-5.143v5.144h5.143v-5.144zm18.715-5.821l-10.165-91.23h-29.284l9.864 91.23h29.585zm-41.914 10.816c.038-.084.085-.162.117-.247l.12-10.569h5.742l-9.868-91.23h-86.96l8.546 77.648h10.541v22.855c6.534 14.897 23.086 19.872 36.662 19.656 16.537-.354 30.666-7.721 35.089-18.085l-.08-.007.09-.021zm-102.315-18.266h-5.146v5.14h5.146v-5.14zm-14.826 0h-5.141v5.14h5.14v-5.14zm-.946-6.132h29.43l-8.55-77.649H198.93l8.376 77.649zm76.717-280.7a3.15 3.15 0 01-3.502 0H212.21l4.409 40.126h87.272l-4.339-40.125h-15.528zm-4.909-43.025l-26.299 14.48 22.106 12.765h4.193V50.28zm-55.157-2.188l22.477 12.98 23.564-12.98h-46.04zm5.684 29.433h32.66L246.36 68.32l-16.718 9.205zm10.332-12.898l-18.85-10.884v21.268l18.85-10.384zM214.81 53.842l-18.358 10.983 18.358 10.172V53.842zm-48.55-5.75l23.81 13.2 22.052-13.2H166.26zm-3.399 29.433h.07l20.877-12.491-20.947-11.61v24.1zm8.065 106.26l-4.743-43.991h-37.118c-25.652 0-46.513 17.812-46.513 39.708v4.283h88.374zm35.425-106.26L190.19 68.57l-14.968 8.954h31.13zm-34.745 112.573H82.552v4.34c0 21.896 20.86 39.709 46.513 39.709h47.29l-4.75-44.049zm-11.033-96.792c-12.801 0-24.935 2.91-35.767 8.104a7.747 7.747 0 01-1.657.931c-.606.248-1.179.553-1.782.821a83.537 83.537 0 00-25.95 21.79c-6.83 9.743-11.817 21.835-14.724 35.859 8.248-16.142 26.82-27.433 48.372-27.433h36.427l-4.325-40.072h-.594zm-4.024-37.623L141.407 70.81l15.142 6.472V55.683zm-50.408.053l29.01 12.396 19.1-19.077-48.11 6.681zm23.582 26.743a98.388 98.388 0 0114.543-3.584l-7.672-3.278-6.871 6.862zm.616-9.539l-28.66-12.247c7.516 6.713 14.088 14.039 19.459 21.442l9.2-9.195zm42.733 335.73l-14.455 17.537 18.73 7.415c-2.079-7.46-3.51-15.788-4.275-24.951zm-30.86-9.13l11.68 22.471 18.524-22.47h-30.205zm-17.416 13.277l21.662 8.572-10.278-19.76-11.384 11.188zM113.81 399.54l5.872 9.453 9.617-9.453h-15.489zm-6.506 1.495v4.857l4.002 1.586-4.002-6.443zm-8.136-1.509h-.978v5.049h.978v-5.049zm-5.734 52.148c-.468-7.431-1.1-13.81-1.747-19.871l-2.662 19.871c.06 3.56 1.469 5.223 2.425 5.223.34 0 .639-.236.826-.431.828-.872 1.26-2.677 1.158-4.792zM92.275 346.75c-.187-.198-.485-.432-.826-.432-.956 0-2.365 1.66-2.425 5.22l2.662 19.873c.646-6.063 1.28-12.435 1.742-19.824.107-2.16-.325-3.97-1.153-4.837zm385.848-149.92c4.29-2.05 7.154-5.71 7.154-9.889 0-4.174-2.865-7.838-7.154-9.886v19.775zM279.115 6.826h-33.413l6.01 5.853c.613.595.952 1.41.952 2.266 0 .85-.34 1.663-.952 2.259l-6.014 5.856h33.417V6.826zM1.972 112.142C16.153 88.858 22.19 56.77 15.165 42.073a7.888 7.888 0 016.357-11.252 86.672 86.672 0 018.476-.414c22.063 0 42.945 8.684 60.311 21.155l70.221-9.75 118.585-.03V29.37h-41.184a3.158 3.158 0 01-2.2-5.418l9.256-9.007-9.255-9.015a3.14 3.14 0 01-.724-3.448 3.155 3.155 0 012.923-1.965h44.344a3.154 3.154 0 013.156 3.154v39.762l42.177 34.092h51.71c52.438 0 95.447 41.057 98.6 92.697 7.987 2.606 13.679 9.106 13.679 16.718 0 7.616-5.692 14.12-13.68 16.72-3.152 51.64-46.16 92.696-98.598 92.696h-6.298l10.045 90.105 105.888-21.924-.028 16.797-93.917 31.093-15.102 27.59-.124.211c-12.953 22.01-77.461 34.33-126.375 34.33-8.752 0-17.004-.4-24.378-1.206.931 20.321-.684 43.215-15.998 70.83a3.17 3.17 0 01-2.766 1.624 3.14 3.14 0 01-1.527-.397 3.152 3.152 0 01-1.23-4.29 137.437 137.437 0 006.393-13.063c-3.138.262-6.51-.197-9.756-1.408-2.42-.896-4.507-2.1-6.135-3.513-2.445 4.051-5.437 7.73-9.093 10.934a3.15 3.15 0 01-4.452-.294 3.157 3.157 0 01.29-4.455c4.17-3.65 7.375-8.033 9.83-12.94a3.22 3.22 0 01.357-.738c1.682-3.49 2.992-7.236 4.016-11.162.025-.344.11-.684.252-1.006 1.127-4.584 1.873-9.404 2.363-14.356a3.446 3.446 0 01.078-.837c.41-4.404.616-8.911.704-13.43a3.436 3.436 0 01.007-.46c.043-2.353.046-4.705.039-7.055-7.288-2.96-12.5-6.895-15.47-11.706-2.742-4.205-5.104-8.954-7.077-14.23l-26.638-10.547c-.085 0-.17 0-.257-.01-.646-.07-1.231-.354-1.713-.77L118.4 417.07a3.218 3.218 0 01-1.021-.4l-14.61-5.786h-6.846c.492 5.935 1.066 11.257 1.63 16.454.789 7.28 1.608 14.808 2.185 23.988.24 5.084-1.438 7.966-2.894 9.492-1.467 1.54-3.383 2.39-5.395 2.39-4.331 0-8.726-4.03-8.74-11.723v-.209l5.29-39.51-5.872-9.716 5.968-9.874-5.36-40.02-.026-.215v-.212c.014-7.69 4.409-11.72 8.74-11.72 2.008 0 3.928.846 5.395 2.386 1.456 1.523 3.135 4.409 2.887 9.539-.57 9.135-1.39 16.662-2.179 23.937-.592 5.46-1.198 11.055-1.7 17.35h9.626v.015h67.017v-19.23h18.935l-8.366-77.649h-22.49a98.24 98.24 0 01-39.621-8.318c-17.412 16.16-42.955 25.684-69.619 25.684-1.775 0-3.563-.038-5.362-.123a7.886 7.886 0 01-6.857-11.065c5.277-11.946 6.379-29.981-1.728-41.333a7.866 7.866 0 01-1.148-6.812 7.875 7.875 0 014.661-5.106c17.277-6.847 20.992-28.608 21.063-45.666-.12-1.998-.202-4.002-.202-6.033v-18.798c-2.572-27.11-24.516-49.642-54.382-54.77a7.914 7.914 0 01-5.852-4.507 7.897 7.897 0 01.445-7.367zm200.42 70.156a5.224 5.224 0 015.22 5.223 5.223 5.223 0 01-5.22 5.219 5.223 5.223 0 01-5.222-5.219 5.224 5.224 0 015.221-5.223zm189.333 125.615l8.813 61.85c4.697-4.896 11.334-7.877 18.311-7.877 4.928 0 9.49 1.544 13.216 4.421 4.285-7.52 11.16-11.847 19.434-12.1l-59.774-46.294zm76.01 58.869l-1.839-1.428c-4.282-3.062-9.116-4.747-13.622-4.747-7.399 0-13.161 4.348-16.228 12.25a3.184 3.184 0 01-2.469 2 3.19 3.19 0 01-2.986-1.11c-3.747-4.504-8.454-5.45-11.742-5.45-7.388 0-14.517 4.713-17.344 11.462a3.215 3.215 0 01-3.368 1.939 3.205 3.205 0 01-2.767-2.73l-11.11-77.981a3.217 3.217 0 011.565-3.226 3.218 3.218 0 013.574.237l80.334 62.22c.683.491 1.36 1.019 2.022 1.568a3.2 3.2 0 01.445 4.471 3.205 3.205 0 01-4.466.525zm-270.738-233.51a5.22 5.22 0 015.221 5.219 5.22 5.22 0 01-5.221 5.215 5.216 5.216 0 110-10.434zm2.7 24.515a5.218 5.218 0 110 10.434 5.215 5.215 0 01-5.222-5.218 5.215 5.215 0 015.221-5.216z"/><text stroke="#FF2A13" stroke-width="2.5" font-family="Telegrafico" font-size="93" letter-spacing="7"><tspan x="59.174" y="621">AIRSHI</tspan> <tspan x="377.169" y="621">P</tspan></text></g></svg>